<svg width="1121" height="608" viewBox="0 0 1121 608" fill="none" xmlns="http://www.w3.org/2000/svg">
<g clip-path="url(#clip0)">
<path d="M166.648 398.686C176.118 391.067 187.002 385.397 198.672 382.002C231.33 372.658 265.115 381.702 297.787 390.449C315.426 395.171 333.665 400.054 351.653 402.065C380.477 405.288 407.343 400.79 429.346 389.058C454.075 375.874 471.887 353.183 476.995 328.365C477.639 325.224 478.069 322.043 478.281 318.844C475.844 320.347 473.399 321.827 470.945 323.284C445.136 338.612 408.86 352.942 382.616 334.165C372.542 326.958 366.006 314.914 364.682 301.124C363.264 286.348 368.018 271.615 377.398 261.715C378.927 260.103 380.566 258.599 382.304 257.213C401.315 242.037 431.327 241.219 452.379 256.218C470.207 268.921 480.768 291.873 480.429 315.153C495.672 305.594 510.414 295.256 524.595 284.183L525.826 285.759C511.238 297.15 496.06 307.765 480.355 317.558C480.18 321.325 479.712 325.074 478.953 328.768C473.727 354.162 455.534 377.36 430.288 390.823C407.926 402.746 380.658 407.321 351.431 404.053C333.293 402.025 314.981 397.122 297.27 392.381C263.369 383.306 231.348 374.733 199.222 383.924C166.931 393.163 140.847 421.503 134.314 454.445C127.777 487.389 141.069 523.541 167.387 544.404L166.145 545.972C139.254 524.654 125.674 487.716 132.351 454.056C136.667 432.302 149.327 412.511 166.648 398.686ZM478.401 316.418C479.157 293.338 468.853 270.412 451.217 257.847C429.031 242.039 396.565 244.394 378.85 263.09C369.862 272.578 365.309 286.724 366.673 300.933C367.941 314.148 374.176 325.668 383.78 332.539C409.146 350.688 444.627 336.588 469.925 321.564C472.761 319.88 475.586 318.164 478.401 316.418V316.418Z" fill="#3F3D56"/>
<path d="M185.5 283.462V291.462C185.5 291.462 176.477 333.291 190.5 331.462C213.5 328.462 196.5 294.462 196.5 294.462V287.462L185.5 283.462Z" fill="#FFB8B8"/>
<path d="M297.5 508.462L306.5 533.462L328.5 525.462L318.5 502.462L297.5 508.462Z" fill="#FFB8B8"/>
<path d="M242.5 533.462L236.5 555.462L259.5 562.462L260.5 539.462L242.5 533.462Z" fill="#FFB8B8"/>
<path d="M222.499 281.462L220.499 292.462C220.499 292.462 219.499 300.462 220.499 305.462C221.499 310.462 293.499 517.462 293.499 517.462L324.499 505.462L284.499 374.462L279.499 273.462L222.499 281.462Z" fill="#2F2E41"/>
<path d="M261.5 279.462L257.5 427.462C257.5 427.462 248.5 437.462 250.5 444.462C252.5 451.462 245.5 509.462 245.5 509.462L239.5 538.462L265.5 546.462C265.5 546.462 270.5 520.462 274.5 517.462C278.5 514.462 301.5 424.462 301.5 418.462C301.5 412.462 318.5 279.462 318.5 279.462L276.5 262.462L261.5 279.462Z" fill="#2F2E41"/>
<path d="M308.5 517.462C308.5 517.462 297.5 505.462 291.5 517.462C287.004 526.088 281.995 534.436 276.5 542.462C276.5 542.462 244.5 561.462 276.5 566.462C276.5 566.462 294.5 567.462 303.5 561.462C312.5 555.462 336.5 546.462 336.5 544.462C336.5 542.462 330.5 513.062 324.5 516.262C318.5 519.462 308.5 517.462 308.5 517.462Z" fill="#2F2E41"/>
<path d="M253.5 550.462C253.5 550.462 244.5 537.462 236.5 546.462C228.5 555.462 218.5 581.462 218.5 581.462C218.5 581.462 200.5 608.462 228.5 607.462C256.5 606.462 258.5 596.462 258.5 596.462C258.5 596.462 262.5 570.462 262.5 569.462C262.5 568.462 260.5 558.182 260.5 558.182L253.5 550.462Z" fill="#2F2E41"/>
<path d="M247 73.962C262.464 73.962 275 61.4259 275 45.962C275 30.498 262.464 17.962 247 17.962C231.536 17.962 219 30.498 219 45.962C219 61.4259 231.536 73.962 247 73.962Z" fill="#FFB8B8"/>
<path d="M232.5 63.462L236.5 95.462L248.5 125.462L274.5 94.462V79.462C274.5 79.462 266.5 67.462 268.5 57.462L232.5 63.462Z" fill="#FFB8B8"/>
<path d="M246.5 102.462L232.5 96.462L217.5 273.462L220.5 284.462C220.5 284.462 228.5 289.462 253.5 285.462C278.5 281.462 319.5 284.462 319.5 284.462L322.5 193.462L273.5 86.462L246.5 102.462Z" fill="#D0CDE1"/>
<path d="M221.5 277.462C221.5 277.462 240.5 112.462 239.5 109.462C238.5 106.462 221.5 98.3386 221.5 98.3386C221.5 98.3386 192.5 117.462 193.5 124.462C194.5 131.462 212.5 279.462 212.5 279.462L221.5 277.462Z" fill="#575A89"/>
<path d="M297.5 265.462C297.5 265.462 267.5 148.462 266.5 122.462C265.5 96.462 265.5 93.462 265.5 93.462C265.5 93.462 311.5 77.462 327.5 93.462L330.5 177.462C330.5 177.462 335.5 213.462 333.5 224.462C332.122 231.625 330.115 238.652 327.5 245.462C327.5 245.462 338.5 256.462 328.5 259.462C318.5 262.462 311.5 257.462 307.5 262.462C303.5 267.462 297.5 265.462 297.5 265.462Z" fill="#575A89"/>
<path d="M200.5 118.462C200.5 118.462 188.5 118.462 189.5 132.462C190.5 146.462 189.5 211.462 189.5 211.462C189.5 211.462 180.5 266.462 183.5 270.462C186.5 274.462 182.5 287.462 182.5 287.462L200.5 291.462C200.5 291.462 202.5 277.462 206.5 276.462C210.5 275.462 216.5 246.462 216.5 246.462L200.5 118.462Z" fill="#575A89"/>
<path d="M335.501 241.462L330.909 249.811C330.909 249.811 299.413 274.893 314.957 284.178C330.501 293.462 345.501 259.462 345.501 259.462L350.501 250.462L335.501 241.462Z" fill="#FFB8B8"/>
<path d="M313.5 91.462L327.5 93.462C327.5 93.462 343.5 104.462 344.5 110.462C345.5 116.462 377.5 171.462 377.5 171.462C379.387 175.542 380.408 179.968 380.5 184.462C380.5 191.462 369.5 244.462 363.5 245.462C357.5 246.462 353.5 256.462 353.5 256.462L332.5 243.462C332.566 240.438 332.901 237.426 333.5 234.462C334.5 229.462 338.5 219.462 338.5 219.462L344.5 198.462C343.569 197.763 342.813 196.858 342.292 195.816C341.771 194.775 341.5 193.626 341.5 192.462C341.5 188.462 324.5 167.462 324.5 167.462L313.5 91.462Z" fill="#575A89"/>
<path d="M243.385 112.671C243.385 112.671 217.501 105.462 219.501 100.462C221.501 95.462 223.501 94.462 223.501 94.462C223.501 94.462 226.501 86.462 229.501 86.462C232.501 86.462 235.069 84.0057 235.069 84.0057L246.501 102.462L243.385 112.671Z" fill="#D0CDE1"/>
<path d="M271.515 73.962C271.515 73.962 281.5 71.462 285.5 74.462C289.5 77.462 292.5 77.462 293.5 79.462C294.5 81.462 307.5 83.462 303.5 86.462C299.5 89.462 246.5 102.462 246.5 102.462L271.5 84.462L271.515 73.962Z" fill="#D0CDE1"/>
<path d="M274.636 16.1691C270.168 8.9142 263.175 3.56813 255.003 1.15983L249 5.96197L251.334 0.360833C249.371 0.0614356 247.385 -0.0533685 245.401 0.0179371L240 6.96197L242.235 0.255791C237.549 0.838189 233.034 2.3853 228.975 4.79958C224.916 7.21387 221.402 10.4429 218.653 14.2832C211.779 24.1949 212.239 37.9728 219 47.962C220.856 42.2585 221.489 36.9128 223.344 31.2092C224.803 31.4081 226.281 31.4153 227.742 31.2306L230 25.962L230.631 31.0078C237.629 30.398 248.01 29.0594 254.645 27.8328L254 23.962L257.86 27.1786C259.893 26.7106 261.1 26.2863 261 25.962C265.935 33.9171 270.824 38.9982 275.758 46.9533C277.632 35.7324 280.938 26.4051 274.636 16.1691Z" fill="#2F2E41"/>
<path d="M273 45.962C274.105 45.962 275 44.1711 275 41.962C275 39.7528 274.105 37.962 273 37.962C271.895 37.962 271 39.7528 271 41.962C271 44.1711 271.895 45.962 273 45.962Z" fill="#FFB8B8"/>
<path d="M104.22 555.693L103.146 555.291C102.911 555.202 79.4379 546.209 68.4423 525.817C57.4462 505.425 62.8304 480.872 62.8861 480.627L63.1395 479.509L64.2123 479.911C64.4481 480 87.9203 488.993 98.9164 509.385C109.912 529.777 104.528 554.33 104.473 554.575L104.22 555.693ZM70.203 524.868C79.4994 542.109 98.0482 550.947 102.748 552.965C103.641 547.928 106.444 527.559 97.1556 510.334C87.8685 493.111 69.3124 484.26 64.6107 482.237C63.7167 487.277 60.9154 507.645 70.203 524.868V524.868Z" fill="#3F3D56"/>
<path d="M76.8466 518.664C96.6071 530.553 104.218 554.167 104.218 554.167C104.218 554.167 79.7898 558.506 60.0292 546.617C40.2686 534.729 32.6582 511.114 32.6582 511.114C32.6582 511.114 57.086 506.776 76.8466 518.664Z" fill="#38C1D6"/>
<path d="M507 296.8H964.184C1050.79 296.8 1121 247.437 1121 160.829V160.829C1121 74.2219 1050.79 38.124 964.184 38.124H820.632C647.418 38.124 507 123.585 507 296.8V296.8Z" fill="#3F3D56"/>
<path d="M938.662 275.821H558.168V274.821C558.168 206.796 584.672 150.752 634.814 112.748C681.118 77.6529 744.982 59.1027 819.504 59.1027H938.662C976.667 59.1027 1008.69 67.4532 1031.28 83.2511C1056.86 101.145 1069.83 127.626 1069.83 161.956C1069.83 196.461 1056.52 225.565 1031.34 246.122C1007.88 265.275 974.965 275.821 938.662 275.821ZM560.17 273.821H938.662C1015.92 273.821 1067.83 228.866 1067.83 161.957C1067.83 97.8624 1020.75 61.1026 938.662 61.1026H819.504C694.4 61.1026 560.74 117.016 560.17 273.821V273.821Z" fill="#38C1D6"/>
<path d="M744 126H701V139H744V126Z" fill="#38C1D6"/>
<path d="M942 125.962H923V138.962H942V125.962Z" fill="#38C1D6"/>
<path d="M980 125.962H961V138.962H980V125.962Z" fill="#38C1D6"/>
<path d="M903 125.962H774V138.962H903V125.962Z" fill="#38C1D6"/>
<path d="M687 209.962H633V222.962H687V209.962Z" fill="#38C1D6"/>
<path d="M874 209.962H855V222.962H874V209.962Z" fill="#38C1D6"/>
<path d="M912 209.962H893V222.962H912V209.962Z" fill="#38C1D6"/>
<path d="M835 209.962H706V222.962H835V209.962Z" fill="#38C1D6"/>
<path d="M910 154.962H856V167.962H910V154.962Z" fill="#38C1D6"/>
<path d="M983 154.962H929V167.962H983V154.962Z" fill="#38C1D6"/>
<path d="M1021 154.962H1002V167.962H1021V154.962Z" fill="#38C1D6"/>
<path d="M652 154.962H633V167.962H652V154.962Z" fill="#38C1D6"/>
<path d="M690 154.962H671V167.962H690V154.962Z" fill="#38C1D6"/>
<path d="M838 154.962H709V167.962H838V154.962Z" fill="#38C1D6"/>
<path d="M744 195.962H798V182.962H744V195.962Z" fill="#38C1D6"/>
<path d="M671 195.962H725V182.962H671V195.962Z" fill="#38C1D6"/>
<path d="M633 195.962H652V182.962H633V195.962Z" fill="#38C1D6"/>
<path d="M1002 195.962H1021V182.962H1002V195.962Z" fill="#38C1D6"/>
<path d="M964 195.962H983V182.962H964V195.962Z" fill="#38C1D6"/>
<path d="M816 195.962L945 195.962V182.962L816 182.962V195.962Z" fill="#38C1D6"/>
<path d="M171 536.962H152V551.962H171V536.962Z" fill="#38C1D6"/>
<path d="M328 580.962H309V595.962H328V580.962Z" fill="#38C1D6"/>
</g>
<defs>
<clipPath id="clip0">
<rect width="1121" height="607.962" fill="white"/>
</clipPath>
</defs>
</svg>
